<?xml version="1.0" encoding="utf-8"?>
<!-- Generator: Adobe Illustrator 16.0.0, SVG Export Plug-In . SVG Version: 6.00 Build 0)  -->
<!DOCTYPE svg PUBLIC "-//W3C//DTD SVG 1.1//EN" "http://www.w3.org/Graphics/SVG/1.1/DTD/svg11.dtd">
<svg version="1.1" id="Layer_1" xmlns="http://www.w3.org/2000/svg" xmlns:xlink="http://www.w3.org/1999/xlink" x="0px" y="0px"
	 width="1010px" height="1010px" viewBox="0 0 1010 1010" enable-background="new 0 0 1010 1010" xml:space="preserve">
<g>
	<defs>
		<rect id="SVGID_1_" width="1010" height="1010"/>
	</defs>
	<clipPath id="SVGID_2_">
		<use xlink:href="#SVGID_1_"  overflow="visible"/>
	</clipPath>
	<g clip-path="url(#SVGID_2_)">
		<defs>
			<rect id="SVGID_3_" width="1010" height="1010"/>
		</defs>
		<clipPath id="SVGID_4_">
			<use xlink:href="#SVGID_3_"  overflow="visible"/>
		</clipPath>
		<g opacity="0.86" clip-path="url(#SVGID_4_)">
			<g>
				<defs>
					<rect id="SVGID_5_" x="77.147" y="78.382" width="865.52" height="865.521"/>
				</defs>
				<clipPath id="SVGID_6_">
					<use xlink:href="#SVGID_5_"  overflow="visible"/>
				</clipPath>
				<rect x="77.647" y="78.882" clip-path="url(#SVGID_6_)" fill="#8A5B3C" width="864.52" height="864.521"/>
				
					<rect x="77.647" y="78.882" clip-path="url(#SVGID_6_)" fill="none" stroke="#8A5B3C" stroke-miterlimit="10" width="864.52" height="864.521"/>
			</g>
		</g>
		
			<rect x="72.647" y="78.882" transform="matrix(0.996 -0.089 0.089 0.996 -43.4802 46.9558)" clip-path="url(#SVGID_4_)" fill="none" stroke="#8A5B3C" stroke-width="27" stroke-miterlimit="10" width="864.519" height="864.52"/>
		<path clip-path="url(#SVGID_4_)" fill="#FBF7C6" d="M286.213,292.471c1.796-0.194,3.637-0.295,5.521-0.295
			c14.348,0,26.382,2.999,36.102,8.995c9.724,5.995,17.555,13.957,23.5,23.888c5.946,9.926,10.243,21.281,12.884,34.063
			c2.645,12.778,3.964,25.852,3.964,39.224c0,13.567-1.133,26.294-3.398,38.193c-2.264,11.892-6.088,22.607-11.467,32.145
			c-5.38,9.535-12.503,17.645-21.377,24.331c-8.872,6.682-19.914,11.502-33.129,14.452c-4.531,1.18-9.061,1.77-13.591,1.77
			c-1.885,0,0.947,0.193,0,0l-4.247-39.225h0.283c9.06-1.377,16.236-4.179,21.519-8.405c5.287-4.23,9.344-9.438,12.175-15.631
			c2.831-6.193,4.628-13.224,5.38-21.086c0.756-7.866,1.132-16.125,1.132-24.772c0-9.245-0.376-17.651-1.132-25.217
			c-0.752-7.571-2.5-14.206-5.238-19.907c-2.735-5.704-6.746-10.47-12.034-14.304c-5.283-3.833-12.644-6.634-22.085-8.405
			l3.432-40.108C286.106,291.983,284.421,292.669,286.213,292.471"/>
		<path clip-path="url(#SVGID_4_)" fill="#FBF7C6" d="M475.986,598.429c-1.963-9.258-5.075-16.33-9.331-21.216
			c-4.257-4.885-12.815-7.868-21.655-8.212l-0.026-33.279c1.041-1.026,28.574,6.908,35.555,11.791
			c5.6,3.916,11.049,7.888,15.715,12.857c4.665,4.975,8.552,10.503,11.663,16.586c3.108,6.087,5.157,12.473,6.139,19.158
			L475.986,598.429z M513.298,720.338l-27.56,3.104l-1.648-25.494c-2.62,3.431-5.241,6.646-7.858,9.643
			c-2.621,3.001-5.402,5.617-8.348,7.843c-2.947,2.229-6.139,4.03-9.576,5.4c-3.439,1.37-9.23,2.437-13.32,2.608L444.974,689
			c5.728-0.855,12.431-1.765,16.035-3.654c3.599-1.885,6.545-4.327,8.839-7.329c2.291-2.997,4.213-6.642,5.77-10.928
			c1.555-4.284,3.07-9.343,4.543-15.173l-35.187,0.251l4.739-32.652h65.07L513.298,720.338z"/>
		<path clip-path="url(#SVGID_4_)" fill="#FBF7C6" d="M651.476,624.603c-2.211,7.65-5.609,13.777-10.19,18.38
			c-4.584,4.607-10.436,7.821-17.557,9.646c-7.122,1.825-15.512,2.738-25.17,2.738H585l-5.838-33.111h12.277
			c4.09,0,7.691-0.217,10.804-0.651c3.106-0.433,5.685-1.52,7.735-3.259c2.044-1.735,3.559-4.257,4.543-7.561
			c0.981-3.3,1.472-7.731,1.472-13.297c0-7.646-0.858-13.426-2.579-17.337c-1.718-3.91-4.135-6.648-7.241-8.213
			c-3.113-1.565-6.877-2.347-11.297-2.347h-14.242h-1.472l4.505-33.961l21.032,0.59c9.164,0,16.941,1.174,23.325,3.52
			c6.384,2.347,11.541,5.911,15.47,10.69c3.93,4.781,6.791,10.949,8.596,18.51c1.799,7.561,2.701,16.555,2.701,26.984
			C654.791,607.396,653.685,616.956,651.476,624.603"/>
		<path clip-path="url(#SVGID_4_)" fill="#FBF7C6" d="M426.799,723.686c-1.558,0.169-3.153,0.256-4.788,0.256
			c-12.442,0-22.878-2.601-31.307-7.8c-8.433-5.199-15.224-12.104-20.381-20.717c-5.156-8.607-8.881-18.455-11.172-29.539
			c-2.294-11.081-3.437-22.419-3.437-34.016c0-11.766,0.981-22.803,2.946-33.122c1.964-10.312,5.28-19.604,9.945-27.876
			c4.665-8.268,10.842-15.301,18.539-21.1c7.692-5.794,17.268-9.975,28.728-12.532c3.929-1.022,7.859-1.534,11.786-1.534
			c1.635,0-0.82-0.168,0,0l3.684,34.016h-0.246c-7.857,1.193-14.08,3.624-18.661,7.289c-4.585,3.669-8.103,8.184-10.559,13.555
			c-2.455,5.371-4.014,11.469-4.665,18.286c-0.656,6.822-0.982,13.983-0.982,21.483c0,8.017,0.326,15.307,0.982,21.867
			c0.651,6.566,2.168,12.32,4.542,17.264c2.371,4.947,5.852,9.08,10.437,12.404c4.58,3.325,10.964,5.262,19.152,6.796l-2.988,34.848
			C426.88,723.681,428.354,723.514,426.799,723.686"/>
		<polygon clip-path="url(#SVGID_4_)" fill="#FBF7C6" points="574.128,723.442 530.835,720.865 527.885,537.062 570.849,535.631 		
			"/>
		<path clip-path="url(#SVGID_4_)" fill="#FBF7C6" d="M570.809,501.442l-33.134,7.794l-40.276-81.483l-65.694-8.002L408.885,505
			l-43.993,4.236l65.273-212.833l38.109-4.227L570.809,501.442z M492.67,407.008l-37.099-76.467l-16.762,64.17L492.67,407.008z"/>
		<polygon clip-path="url(#SVGID_4_)" fill="#FBF7C6" points="742.047,507.543 685.746,505.62 620.284,365.837 624.621,507.543 
			580.162,509.236 586.612,295.748 621.521,293.828 711.685,476.494 695.986,292.176 740.677,294.318 		"/>
		<polygon clip-path="url(#SVGID_4_)" fill="#FBF7C6" points="797.128,509.236 753.835,506.258 750.885,293.83 793.849,292.176 		
			"/>
		<polygon clip-path="url(#SVGID_4_)" fill="#FBF7C6" points="268.54,509.236 225.247,506.258 222.296,293.83 265.261,292.176 		"/>
		
			<rect x="77.647" y="76.976" clip-path="url(#SVGID_4_)" fill="none" stroke="#8A5B3C" stroke-width="6" stroke-miterlimit="10" width="864.52" height="864.52"/>
	</g>
</g>
</svg>
