<?xml version="1.0" encoding="utf-8"?>
<!-- Generator: Adobe Illustrator 16.0.0, SVG Export Plug-In . SVG Version: 6.00 Build 0)  -->
<!DOCTYPE svg PUBLIC "-//W3C//DTD SVG 1.1//EN" "http://www.w3.org/Graphics/SVG/1.1/DTD/svg11.dtd">
<svg version="1.1" id="Layer_1" xmlns="http://www.w3.org/2000/svg" xmlns:xlink="http://www.w3.org/1999/xlink" x="0px" y="0px"
	 width="1010px" height="1010px" viewBox="0 0 1010 1010" enable-background="new 0 0 1010 1010" xml:space="preserve">
<g>
	<defs>
		<rect id="SVGID_1_" width="1010" height="1010"/>
	</defs>
	<clipPath id="SVGID_2_">
		<use xlink:href="#SVGID_1_"  overflow="visible"/>
	</clipPath>

		<rect x="72.647" y="78.882" transform="matrix(0.996 -0.089 0.089 0.996 -43.4802 46.9559)" clip-path="url(#SVGID_2_)" fill="none" stroke="#000000" stroke-width="27" stroke-miterlimit="10" width="864.519" height="864.52"/>
</g>
<rect class="path" x="77.647" y="78.882" fill="none" stroke="#000000" stroke-width="6" stroke-miterlimit="10" width="864.52" height="864.521"/>
<g>
	<defs>
		<rect id="SVGID_3_" width="1010" height="1010"/>
	</defs>
	<clipPath id="SVGID_4_">
		<use xlink:href="#SVGID_3_"  overflow="visible"/>
	</clipPath>
	<path clip-path="url(#SVGID_4_)" d="M286.213,292.471c1.796-0.194,3.637-0.295,5.521-0.295c14.348,0,26.382,2.999,36.102,8.995
		c9.724,5.995,17.555,13.957,23.501,23.888c5.946,9.926,10.242,21.281,12.883,34.063c2.645,12.778,3.964,25.852,3.964,39.224
		c0,13.567-1.133,26.294-3.398,38.193c-2.265,11.892-6.088,22.607-11.467,32.145c-5.38,9.535-12.503,17.645-21.377,24.331
		c-8.871,6.682-19.914,11.502-33.129,14.452c-4.53,1.18-9.061,1.77-13.591,1.77c-1.885,0,0.947,0.193,0,0l-4.247-39.225h0.283
		c9.06-1.377,16.236-4.179,21.519-8.405c5.287-4.23,9.344-9.438,12.175-15.631c2.832-6.193,4.628-13.224,5.381-21.086
		c0.755-7.866,1.131-16.125,1.131-24.772c0-9.245-0.376-17.651-1.131-25.217c-0.753-7.571-2.5-14.206-5.239-19.907
		c-2.734-5.704-6.747-10.47-12.034-14.304c-5.282-3.833-12.644-6.634-22.085-8.405l3.432-40.108
		C286.106,291.983,284.421,292.669,286.213,292.471"/>
	<path clip-path="url(#SVGID_4_)" d="M475.987,598.429c-1.965-9.258-5.076-16.33-9.331-21.216
		c-4.259-4.885-12.816-7.868-21.656-8.212l-0.026-33.279c1.041-1.026,28.574,6.908,35.555,11.791
		c5.6,3.916,11.05,7.888,15.715,12.857c4.666,4.975,8.553,10.503,11.663,16.586c3.108,6.087,5.157,12.473,6.139,19.158
		L475.987,598.429z M513.298,720.338l-27.56,3.104l-1.648-25.494c-2.621,3.431-5.241,6.646-7.858,9.643
		c-2.62,3.001-5.402,5.617-8.348,7.843c-2.947,2.229-6.139,4.03-9.576,5.4c-3.438,1.37-9.23,2.437-13.32,2.608L444.974,689
		c5.728-0.855,12.432-1.765,16.034-3.654c3.599-1.885,6.546-4.327,8.84-7.329c2.29-2.997,4.213-6.642,5.77-10.928
		c1.555-4.284,3.07-9.343,4.543-15.173l-35.187,0.251l4.739-32.652h65.07L513.298,720.338z"/>
	<path clip-path="url(#SVGID_4_)" d="M651.476,624.603c-2.211,7.65-5.609,13.777-10.19,18.38
		c-4.584,4.607-10.436,7.821-17.557,9.646c-7.122,1.825-15.512,2.738-25.17,2.738H585l-5.838-33.111h12.277
		c4.09,0,7.691-0.217,10.804-0.651c3.106-0.433,5.685-1.52,7.735-3.259c2.044-1.735,3.559-4.257,4.543-7.561
		c0.981-3.3,1.472-7.731,1.472-13.297c0-7.646-0.858-13.426-2.579-17.337c-1.718-3.91-4.135-6.648-7.241-8.213
		c-3.113-1.565-6.877-2.347-11.297-2.347h-14.242h-1.472l4.505-33.961l21.032,0.59c9.164,0,16.941,1.174,23.325,3.52
		c6.384,2.347,11.541,5.911,15.47,10.69c3.93,4.781,6.791,10.949,8.596,18.51c1.799,7.561,2.701,16.555,2.701,26.984
		C654.791,607.396,653.685,616.956,651.476,624.603"/>
	<path clip-path="url(#SVGID_4_)" d="M426.799,723.686c-1.558,0.169-3.153,0.256-4.788,0.256c-12.442,0-22.878-2.601-31.307-7.8
		c-8.433-5.199-15.224-12.104-20.38-20.717c-5.157-8.607-8.882-18.455-11.173-29.539c-2.294-11.081-3.437-22.419-3.437-34.016
		c0-11.766,0.982-22.803,2.946-33.122c1.964-10.312,5.28-19.604,9.945-27.876c4.665-8.268,10.842-15.301,18.538-21.1
		c7.693-5.794,17.269-9.975,28.73-12.532c3.928-1.022,7.857-1.534,11.786-1.534c1.634,0-0.821-0.168,0,0l3.683,34.016h-0.246
		c-7.857,1.193-14.08,3.624-18.661,7.289c-4.585,3.669-8.103,8.184-10.559,13.555c-2.455,5.371-4.013,11.469-4.665,18.286
		c-0.656,6.822-0.982,13.983-0.982,21.483c0,8.017,0.326,15.307,0.982,21.867c0.652,6.566,2.168,12.32,4.543,17.264
		c2.371,4.947,5.85,9.08,10.436,12.404c4.58,3.325,10.964,5.262,19.152,6.796l-2.989,34.848
		C426.88,723.681,428.353,723.514,426.799,723.686"/>
	<polygon clip-path="url(#SVGID_4_)" points="574.128,723.442 530.835,720.865 527.885,537.062 570.849,535.631 	"/>
	<path clip-path="url(#SVGID_4_)" d="M570.809,501.442l-33.134,7.794l-40.276-81.483l-65.693-8.002L408.885,505l-43.993,4.236
		l65.273-212.833l38.109-4.227L570.809,501.442z M492.67,407.008l-37.099-76.467l-16.762,64.17L492.67,407.008z"/>
	<polygon clip-path="url(#SVGID_4_)" points="742.047,507.543 685.746,505.62 620.284,365.837 624.621,507.543 580.162,509.236
		586.612,295.748 621.521,293.828 711.685,476.494 695.986,292.176 740.677,294.318 	"/>
	<polygon clip-path="url(#SVGID_4_)" points="797.128,509.236 753.835,506.258 750.885,293.83 793.849,292.176 	"/>
	<polygon clip-path="url(#SVGID_4_)" points="268.54,509.236 225.247,506.258 222.296,293.83 265.261,292.176 	"/>
</g>
</svg>
